<svg width="668" height="104" viewBox="0 0 668 104" fill="none" xmlns="http://www.w3.org/2000/svg">
<path d="M51.7827 27.414C58.5053 27.414 64.0791 29.8746 69.4899 34.7959L88.3662 14.9543C77.871 5.28166 66.064 8.79064e-05 51.8031 8.79064e-05C44.9932 -0.0124685 38.248 1.32025 31.9547 3.92169C25.6613 6.52314 19.9438 10.3421 15.1305 15.1592C10.3171 19.9764 6.50264 25.6969 3.90615 31.9923C1.30966 38.2877 -0.0177367 45.034 0.000178961 51.8438C-0.0159053 58.6574 1.31113 65.4075 3.9054 71.7079C6.49968 78.0084 10.3103 83.7358 15.1195 88.5626C19.9286 93.3895 25.642 97.2211 31.9329 99.8385C38.2239 102.456 44.969 103.808 51.7827 103.817C66.0572 103.817 79.4888 97.7533 88.3458 88.8623L69.4899 69.0819C64.2423 73.9964 58.5053 76.4571 51.8167 76.4571C48.6029 76.4769 45.4173 75.8586 42.4443 74.6379C39.4714 73.4172 36.7704 71.6185 34.4979 69.346C32.2254 67.0735 30.4267 64.3725 29.206 61.3996C27.9853 58.4267 27.367 55.241 27.3868 52.0273C27.3617 48.8063 27.974 45.6122 29.1885 42.6288C30.4029 39.6455 32.1955 36.9318 34.463 34.6441C36.7305 32.3564 39.4281 30.5398 42.4006 29.2989C45.373 28.0581 48.5616 27.4174 51.7827 27.414Z" fill="#FF916F"/>
<path d="M148.333 0C141.517 0.0053423 134.769 1.3545 128.475 3.97027C122.181 6.58605 116.464 10.4171 111.652 15.2443C106.84 20.0715 103.027 25.8001 100.431 32.1024C97.835 38.4046 96.5071 45.1569 96.5232 51.9728C96.5097 58.7803 97.8407 65.5235 100.44 71.8154C103.039 78.1073 106.854 83.8241 111.668 88.6378C116.482 93.4514 122.198 97.2672 128.49 99.8661C134.782 102.465 141.525 103.796 148.333 103.783C155.15 103.8 161.904 102.474 168.207 99.8786C174.511 97.2834 180.242 93.4706 185.07 88.6584C189.899 83.8462 193.731 78.129 196.348 71.8341C198.964 65.5391 200.314 58.7899 200.319 51.9728C200.316 38.1875 194.837 24.9681 185.088 15.2217C175.339 5.47528 162.118 -4.71357e-07 148.333 0ZM148.333 76.4026C145.119 76.4225 141.933 75.8042 138.961 74.5835C135.988 73.3628 133.287 71.5641 131.014 69.2916C128.742 67.0191 126.943 64.3181 125.722 61.3451C124.502 58.3722 123.883 55.1865 123.903 51.9728C123.881 48.7507 124.496 45.556 125.714 42.5728C126.932 39.5896 128.728 36.8768 130.998 34.5908C133.269 32.3048 135.97 30.4907 138.945 29.2531C141.92 28.0156 145.111 27.3789 148.333 27.3799C151.564 27.3754 154.764 28.0085 157.749 29.2428C160.735 30.4771 163.448 32.2885 165.733 34.573C168.017 36.8576 169.829 39.5704 171.063 42.5562C172.297 45.542 172.93 48.742 172.926 51.9728C172.927 55.195 172.29 58.3856 171.053 61.3606C169.815 64.3357 168.001 67.0364 165.715 69.3073C163.429 71.5781 160.716 73.3741 157.733 74.5919C154.75 75.8096 151.555 76.4251 148.333 76.4026Z" fill="#FF916F"/>
<path d="M208.476 0V26.7581H252.525L208.476 104H298.202V77.2419H254.316L298.202 0H208.476Z" fill="#FF916F"/>
<path d="M352.162 0.000127641C346.144 -0.0117515 340.182 1.1649 334.62 3.46254C329.057 5.76017 324.003 9.1336 319.748 13.3892C315.492 17.6448 312.119 22.6989 309.821 28.2614C307.523 33.8239 306.347 39.7854 306.359 45.8038V57.9788C306.347 63.9971 307.523 69.9586 309.821 75.5211C312.119 81.0836 315.492 86.1377 319.748 90.3933C324.003 94.6489 329.057 98.0224 334.62 100.32C340.182 102.618 346.144 103.794 352.162 103.782H355.768V79.7448H352.162C347.054 79.6875 342.126 77.8445 338.234 74.5353C334.342 71.226 331.731 66.6592 330.853 61.6265H398.11V45.8278C398.108 39.7999 396.918 33.8316 394.607 28.2644C392.296 22.6972 388.909 17.6405 384.641 13.3837C380.373 9.12697 375.308 5.75375 369.735 3.45722C364.161 1.16068 358.19 -0.0140966 352.162 0.000127641ZM332.331 37.3966C333.987 33.4617 336.762 30.1001 340.313 27.7293C343.863 25.3586 348.031 24.0832 352.3 24.0618C361.314 24.0618 368.682 29.7166 372.131 37.3966H332.331Z" fill="#FF916F"/>
<path d="M621.278 0.000127641C615.26 -0.0117515 609.298 1.1649 603.736 3.46254C598.173 5.76017 593.119 9.1336 588.863 13.3892C584.608 17.6448 581.234 22.6989 578.937 28.2614C576.639 33.8239 575.462 39.7854 575.474 45.8038V57.9788C575.462 63.9971 576.639 69.9586 578.937 75.5211C581.234 81.0836 584.608 86.1377 588.863 90.3933C593.119 94.6489 598.173 98.0224 603.736 100.32C609.298 102.618 615.26 103.794 621.278 103.782H624.884V79.7448H621.278C616.169 79.6875 611.242 77.8445 607.35 74.5353C603.458 71.226 600.847 66.6592 599.969 61.6265H667.226V45.8278C667.224 39.7999 666.034 33.8316 663.723 28.2644C661.411 22.6972 658.025 17.6405 653.757 13.3837C649.489 9.12697 644.424 5.75375 638.85 3.45722C633.277 1.16068 627.306 -0.0140966 621.278 0.000127641ZM601.447 37.3966C603.103 33.4617 605.878 30.1001 609.428 27.7293C612.979 25.3586 617.147 24.0832 621.416 24.0618C630.43 24.0618 637.798 29.7166 641.247 37.3966H601.447Z" fill="#FF916F"/>
<path d="M500.118 0H489.875V26.1291H506.916V84.743H532.977V26.1291H567.317V0H526.18H500.118Z" fill="#FF916F"/>
<path d="M406.267 26.1291H440.607V84.743H466.668V26.1291H484.437V0H406.267V26.1291Z" fill="#FF916F"/>
<path d="M466.111 90.4053H440.281V104H466.111V90.4053Z" fill="#FF916F"/>
<path d="M532.698 90.4053H506.868V104H532.698V90.4053Z" fill="#FF916F"/>
</svg>
