<svg width="20" height="14" viewBox="0 0 20 14" fill="none" xmlns="http://www.w3.org/2000/svg">
<path d="M3.18085 7.80044L17.7029 8.87929C18.527 8.94173 19.2338 8.1226 19.2837 7.04874C19.3312 5.97738 18.7019 5.05835 17.8777 4.99592C17.5955 4.97095 3.44307 6.07477 3.18584 6.07477C2.36422 6.15469 2.35922 7.71803 3.18584 7.79794L3.18085 7.80044Z" fill="#DEDEE3"/>
<path d="M0.830847 6.99879C0.830847 9.0591 7.04674 13.6667 8.69999 13.6667C9.42921 13.6667 10.558 12.7127 10.558 11.4441C10.558 10.3877 8.43776 9.2539 7.16661 8.57212C5.94791 7.91782 5.27612 7.5582 5.27612 6.96383C5.27612 6.95634 5.27612 6.94635 5.27862 6.93886C5.28611 6.66664 5.44095 6.44688 5.74563 6.21962C5.74563 6.21962 5.74562 6.21712 5.74812 6.21712C6.09276 5.88248 6.74456 5.52036 7.78596 4.96345C8.20801 4.7362 8.67501 4.48396 9.14951 4.21425C9.93118 3.67233 10.558 3.06547 10.558 2.48359C10.558 1.15001 9.47416 0.333374 8.69999 0.333374C8.35036 0.333374 7.69106 0.56313 6.87443 0.977689C6.06029 1.39225 5.09132 1.99161 4.12735 2.73332C2.06204 4.32164 0.830847 5.91494 0.830847 6.99879Z" fill="#DEDEE3"/>
</svg>
